<svg width="267" height="18" viewBox="0 0 267 18" fill="none" xmlns="http://www.w3.org/2000/svg">
<path d="M0.25 16.947H3.25665V11.0726H9.36023V16.947H12.3599V2.72617H9.36023V8.59366H3.25665V2.72617H0.25V16.947Z" fill="white"/>
<path d="M19.1837 14.2213L20.2392 10.9786H25.3706L26.4261 14.2213H29.648L24.7457 0.000488281H20.871L15.9618 14.2213H19.1837ZM21.003 8.6316L22.7528 3.25018H22.8639L24.6137 8.6316H21.003Z" fill="white"/>
<path d="M45.2557 7.70485C44.8599 4.42045 42.3741 2.53174 39.0827 2.53174C35.3261 2.53174 32.4584 5.18426 32.4584 9.83659C32.4584 14.475 35.2775 17.1414 39.0827 17.1414C42.7282 17.1414 44.9294 14.7181 45.2557 12.1003L42.2144 12.0864C41.9297 13.6071 40.7353 14.482 39.1313 14.482C36.9718 14.482 35.5067 12.878 35.5067 9.83659C35.5067 6.87854 36.951 5.19121 39.1521 5.19121C40.7978 5.19121 41.9852 6.1425 42.2144 7.70485H45.2557Z" fill="white"/>
<path d="M49.3671 16.947H52.3738V12.9057L53.8528 11.1004L57.7483 16.947H61.3451L56.0054 9.09361L61.2827 2.72617H57.6788L52.5613 8.99639H52.3738V2.72617H49.3671V16.947Z" fill="white"/>
<path d="M67.255 16.947L68.3104 13.7043H73.4419L74.4973 16.947H77.7193L72.8169 2.72617H68.9423L64.0331 16.947H67.255ZM69.0743 11.3573L70.8241 5.97585H70.9352L72.685 11.3573H69.0743Z" fill="white"/>
<path d="M79.0879 5.20509H83.4416V16.947H86.4136V5.20509H90.7673V2.72617H79.0879V5.20509Z" fill="white"/>
<path d="M94.6461 16.947H97.6528V11.0726H103.756V16.947H106.756V2.72617H103.756V8.59366H97.6528V2.72617H94.6461V16.947Z" fill="white"/>
<path d="M124.259 9.83659C124.259 5.18426 121.37 2.53174 117.599 2.53174C113.808 2.53174 110.94 5.18426 110.94 9.83659C110.94 14.4681 113.808 17.1414 117.599 17.1414C121.37 17.1414 124.259 14.4889 124.259 9.83659ZM121.21 9.83659C121.21 12.8502 119.78 14.482 117.599 14.482C115.412 14.482 113.989 12.8502 113.989 9.83659C113.989 6.82299 115.412 5.19121 117.599 5.19121C119.78 5.19121 121.21 6.82299 121.21 9.83659Z" fill="white"/>
<path d="M140.336 2.72617H137.343V11.6697H137.218L131.08 2.72617H128.441V16.947H131.448V7.99649H131.552L137.739 16.947H140.336V2.72617Z" fill="white"/>
<path d="M151.256 16.947H154.263V11.0726H160.047V8.59366H154.263V5.20509H160.672V2.72617H151.256V16.947Z" fill="white"/>
<path d="M177.718 9.83659C177.718 5.18426 174.829 2.53174 171.059 2.53174C167.268 2.53174 164.4 5.18426 164.4 9.83659C164.4 14.4681 167.268 17.1414 171.059 17.1414C174.829 17.1414 177.718 14.4889 177.718 9.83659ZM174.67 9.83659C174.67 12.8502 173.239 14.482 171.059 14.482C168.872 14.482 167.448 12.8502 167.448 9.83659C167.448 6.82299 168.872 5.19121 171.059 5.19121C173.239 5.19121 174.67 6.82299 174.67 9.83659Z" fill="white"/>
<path d="M181.901 16.947H184.907V11.9058H187.101L189.796 16.947H193.115L190.094 11.4198C191.712 10.7254 192.608 9.31581 192.608 7.37155C192.608 4.54543 190.74 2.72617 187.511 2.72617H181.901V16.947ZM184.907 9.4894V5.18426H186.935C188.671 5.18426 189.511 5.95502 189.511 7.37155C189.511 8.78114 188.671 9.4894 186.949 9.4894H184.907Z" fill="white"/>
<path d="M212.599 7.32295H215.654C215.265 4.51071 212.786 2.53174 209.571 2.53174C205.815 2.53174 202.919 5.23981 202.919 9.85048C202.919 14.35 205.627 17.1414 209.634 17.1414C213.224 17.1414 215.786 14.8708 215.786 11.1281V9.33664H209.835V11.6003H212.89C212.849 13.364 211.647 14.482 209.648 14.482C207.391 14.482 205.967 12.7946 205.967 9.82271C205.967 6.86466 207.446 5.19121 209.62 5.19121C211.168 5.19121 212.217 5.98974 212.599 7.32295Z" fill="white"/>
<path d="M233.068 9.83659C233.068 5.18426 230.179 2.53174 226.409 2.53174C222.617 2.53174 219.75 5.18426 219.75 9.83659C219.75 14.4681 222.617 17.1414 226.409 17.1414C230.179 17.1414 233.068 14.4889 233.068 9.83659ZM230.02 9.83659C230.02 12.8502 228.589 14.482 226.409 14.482C224.221 14.482 222.798 12.8502 222.798 9.83659C222.798 6.82299 224.221 5.19121 226.409 5.19121C228.589 5.19121 230.02 6.82299 230.02 9.83659Z" fill="white"/>
<path d="M250.319 9.83659C250.319 5.18426 247.43 2.53174 243.66 2.53174C239.868 2.53174 237 5.18426 237 9.83659C237 14.4681 239.868 17.1414 243.66 17.1414C247.43 17.1414 250.319 14.4889 250.319 9.83659ZM247.27 9.83659C247.27 12.8502 245.84 14.482 243.66 14.482C241.472 14.482 240.049 12.8502 240.049 9.83659C240.049 6.82299 241.472 5.19121 243.66 5.19121C245.84 5.19121 247.27 6.82299 247.27 9.83659Z" fill="white"/>
<path d="M259.542 16.947C263.875 16.947 266.5 14.2667 266.5 9.82271C266.5 5.39258 263.875 2.72617 259.584 2.72617H254.501V16.947H259.542ZM257.508 14.3709V5.30231H259.424C262.091 5.30231 263.5 6.66329 263.5 9.82271C263.5 12.996 262.091 14.3709 259.417 14.3709H257.508Z" fill="white"/>
<path d="M0.25 16.9158H3.25665V11.0413H9.36023V16.9158H12.3599V2.69491H9.36023V8.5624H3.25665V2.69491H0.25V16.9158Z" fill="white"/>
<path d="M45.2557 7.6736C44.8599 4.38919 42.3741 2.50049 39.0827 2.50049C35.3261 2.50049 32.4584 5.15301 32.4584 9.80534C32.4584 14.4438 35.2775 17.1102 39.0827 17.1102C42.7282 17.1102 44.9294 14.6868 45.2557 12.069L42.2144 12.0551C41.9297 13.5758 40.7353 14.4507 39.1313 14.4507C36.9718 14.4507 35.5067 12.8467 35.5067 9.80534C35.5067 6.84729 36.951 5.15995 39.1521 5.15995C40.7978 5.15995 41.9852 6.11125 42.2144 7.6736H45.2557Z" fill="white"/>
<path d="M49.3671 16.9158H52.3738V12.8745L53.8528 11.0691L57.7483 16.9158H61.3451L56.0054 9.06235L61.2827 2.69491H57.6788L52.5613 8.96514H52.3738V2.69491H49.3671V16.9158Z" fill="white"/>
<path d="M67.255 16.9158L68.3104 13.673H73.4419L74.4973 16.9158H77.7193L72.8169 2.69491H68.9423L64.0331 16.9158H67.255ZM69.0743 11.326L70.8241 5.9446H70.9352L72.685 11.326H69.0743Z" fill="white"/>
<path d="M79.0879 5.17384H83.4416V16.9158H86.4136V5.17384H90.7673V2.69491H79.0879V5.17384Z" fill="white"/>
<path d="M94.6461 16.9158H97.6528V11.0413H103.756V16.9158H106.756V2.69491H103.756V8.5624H97.6528V2.69491H94.6461V16.9158Z" fill="white"/>
<path d="M124.259 9.80534C124.259 5.15301 121.37 2.50049 117.599 2.50049C113.808 2.50049 110.94 5.15301 110.94 9.80534C110.94 14.4368 113.808 17.1102 117.599 17.1102C121.37 17.1102 124.259 14.4577 124.259 9.80534ZM121.21 9.80534C121.21 12.8189 119.78 14.4507 117.599 14.4507C115.412 14.4507 113.989 12.8189 113.989 9.80534C113.989 6.79174 115.412 5.15995 117.599 5.15995C119.78 5.15995 121.21 6.79174 121.21 9.80534Z" fill="white"/>
<path d="M140.336 2.69491H137.343V11.6385H137.218L131.08 2.69491H128.441V16.9158H131.448V7.96524H131.552L137.739 16.9158H140.336V2.69491Z" fill="white"/>
<path d="M151.256 16.9158H154.263V11.0413H160.047V8.5624H154.263V5.17384H160.672V2.69491H151.256V16.9158Z" fill="white"/>
<path d="M177.718 9.80534C177.718 5.15301 174.829 2.50049 171.059 2.50049C167.268 2.50049 164.4 5.15301 164.4 9.80534C164.4 14.4368 167.268 17.1102 171.059 17.1102C174.829 17.1102 177.718 14.4577 177.718 9.80534ZM174.67 9.80534C174.67 12.8189 173.239 14.4507 171.059 14.4507C168.872 14.4507 167.448 12.8189 167.448 9.80534C167.448 6.79174 168.872 5.15995 171.059 5.15995C173.239 5.15995 174.67 6.79174 174.67 9.80534Z" fill="white"/>
<path d="M181.901 16.9158H184.907V11.8746H187.101L189.796 16.9158H193.115L190.094 11.3885C191.712 10.6941 192.608 9.28455 192.608 7.3403C192.608 4.51418 190.74 2.69491 187.511 2.69491H181.901V16.9158ZM184.907 9.45815V5.15301H186.935C188.671 5.15301 189.511 5.92377 189.511 7.3403C189.511 8.74988 188.671 9.45815 186.949 9.45815H184.907Z" fill="white"/>
<path d="M212.599 7.29169H215.654C215.265 4.47946 212.786 2.50049 209.571 2.50049C205.815 2.50049 202.919 5.20856 202.919 9.81923C202.919 14.3188 205.627 17.1102 209.634 17.1102C213.224 17.1102 215.786 14.8396 215.786 11.0969V9.30539H209.835V11.5691H212.89C212.849 13.3328 211.647 14.4507 209.648 14.4507C207.391 14.4507 205.967 12.7634 205.967 9.79145C205.967 6.8334 207.446 5.15995 209.62 5.15995C211.168 5.15995 212.217 5.95849 212.599 7.29169Z" fill="white"/>
<path d="M233.068 9.80534C233.068 5.15301 230.179 2.50049 226.409 2.50049C222.617 2.50049 219.75 5.15301 219.75 9.80534C219.75 14.4368 222.617 17.1102 226.409 17.1102C230.179 17.1102 233.068 14.4577 233.068 9.80534ZM230.02 9.80534C230.02 12.8189 228.589 14.4507 226.409 14.4507C224.221 14.4507 222.798 12.8189 222.798 9.80534C222.798 6.79174 224.221 5.15995 226.409 5.15995C228.589 5.15995 230.02 6.79174 230.02 9.80534Z" fill="white"/>
<path d="M250.319 9.80534C250.319 5.15301 247.43 2.50049 243.66 2.50049C239.868 2.50049 237 5.15301 237 9.80534C237 14.4368 239.868 17.1102 243.66 17.1102C247.43 17.1102 250.319 14.4577 250.319 9.80534ZM247.27 9.80534C247.27 12.8189 245.84 14.4507 243.66 14.4507C241.472 14.4507 240.049 12.8189 240.049 9.80534C240.049 6.79174 241.472 5.15995 243.66 5.15995C245.84 5.15995 247.27 6.79174 247.27 9.80534Z" fill="white"/>
<path d="M259.542 16.9158C263.875 16.9158 266.5 14.2355 266.5 9.79145C266.5 5.36132 263.875 2.69491 259.584 2.69491H254.501V16.9158H259.542ZM257.508 14.3396V5.27106H259.424C262.091 5.27106 263.5 6.63203 263.5 9.79145C263.5 12.9648 262.091 14.3396 259.417 14.3396H257.508Z" fill="white"/>
</svg>
